<svg id="Capa_1" enable-background="new 0 0 511.986 511.986" height="512" viewBox="0 0 511.986 511.986" width="512" xmlns="http://www.w3.org/2000/svg"><g id="XMLID_980_"><g id="XMLID_105_"><path id="XMLID_2372_" d="m468.706 463.434c-8.728-8.874-19.971-14.429-32.147-15.985-12.697-21.72-36.305-35.463-61.696-35.463-16.019 0-31.059 5.269-43.193 14.488l83.867-119.805c54.339-77.625 45.149-182.595-21.852-249.596-31.404-31.405-71.275-50.697-115.302-55.789-42.705-4.943-86.391 4.491-123.009 26.554-4.73 2.851-6.254 8.996-3.404 13.726 2.851 4.731 8.996 6.254 13.727 3.404 68.925-41.531 156.863-30.737 213.847 26.247 60.126 60.126 68.373 154.325 19.609 223.984l-106.724 152.457c-21.71 3.409-39.246 19.561-44.683 40.536-.2-.239-135.167-192.994-135.167-192.994-39.606-56.578-42.204-131.34-6.619-190.466 2.848-4.732 1.321-10.877-3.411-13.725-4.732-2.847-10.877-1.322-13.725 3.411-39.657 65.891-36.765 149.204 7.37 212.25l52.839 75.481c-22.938 7.852-42.379 24.034-54.251 45.471-17.368 1.717-33.461 9.39-45.835 21.969-13.831 14.061-21.448 32.669-21.448 52.396 0 5.523 4.477 10 10 10h436.988c5.523 0 10-4.477 10-10 0-14.513-5.605-28.205-15.781-38.551zm-367.465-16.172c3.791-.069 7.216-2.274 8.847-5.697 10-20.985 28.79-36.398 51.012-42.176l64.821 92.597h-177.493c4.691-24.971 26.589-44.25 52.813-44.724zm166.207 44.724c4.314-14.442 17.72-25 33.545-25 4.555 0 8.996.869 13.199 2.582 2.458 1.003 5.214.986 7.661-.045 2.446-1.031 4.382-2.993 5.38-5.453 7.912-19.49 26.608-32.084 47.63-32.084 19.713 0 37.936 11.51 46.423 29.322 1.63 3.422 5.056 5.628 8.846 5.697 15.477.28 28.596 10.805 32.879 24.98h-195.563z"/><path id="XMLID_2374_" d="m125.112 74.145c2.64 0 5.211-1.07 7.07-2.93 1.87-1.86 2.93-4.44 2.93-7.07s-1.059-5.21-2.93-7.07c-1.86-1.86-4.43-2.93-7.07-2.93-2.63 0-5.21 1.07-7.07 2.93s-2.93 4.44-2.93 7.07 1.07 5.21 2.93 7.07c1.861 1.861 4.441 2.93 7.07 2.93z"/><path id="XMLID_3154_" d="m153.939 174.48h9.027v110c0 5.523 4.477 10 10 10h166.054c5.523 0 10-4.477 10-10v-110h9.027c4.358 0 8.214-2.822 9.532-6.976s-.206-8.683-3.767-11.195l-102.054-72c-3.456-2.438-8.073-2.438-11.529 0l-102.054 72c-3.561 2.512-5.085 7.041-3.767 11.195 1.317 4.154 5.173 6.976 9.531 6.976zm88.054 100v-56h28v56zm87.027 0h-39.027v-66c0-5.523-4.477-10-10-10h-48c-5.523 0-10 4.477-10 10v66h-39.027v-100h146.054zm-73.027-169.762 70.533 49.762h-141.066z"/></g></g></svg>