<?xml version="1.0" standalone="no"?><svg xmlns="http://www.w3.org/2000/svg" viewBox="0 0 1440 320"><path fill="#FAD02C" fill-opacity="1" d="M0,96L24,112C48,128,96,160,144,186.7C192,213,240,235,288,250.7C336,267,384,277,432,282.7C480,288,528,288,576,256C624,224,672,160,720,149.3C768,139,816,181,864,208C912,235,960,245,1008,218.7C1056,192,1104,128,1152,122.7C1200,117,1248,171,1296,192C1344,213,1392,203,1416,197.3L1440,192L1440,0L1416,0C1392,0,1344,0,1296,0C1248,0,1200,0,1152,0C1104,0,1056,0,1008,0C960,0,912,0,864,0C816,0,768,0,720,0C672,0,624,0,576,0C528,0,480,0,432,0C384,0,336,0,288,0C240,0,192,0,144,0C96,0,48,0,24,0L0,0Z"></path></svg>